<svg id="svg" version="1.1" xmlns="http://www.w3.org/2000/svg" xmlns:xlink="http://www.w3.org/1999/xlink" width="400" height="409.04761904761904" viewBox="0, 0, 400,409.04761904761904"><g id="svgg"><path id="path0" d="M95.600 29.800 L 95.600 35.600 107.000 35.600 L 118.400 35.600 118.400 29.800 L 118.400 24.000 107.000 24.000 L 95.600 24.000 95.600 29.800 M259.200 29.864 L 259.200 35.727 267.664 35.464 C 272.320 35.319,277.450 35.200,279.064 35.200 L 282.000 35.200 282.000 29.600 L 282.000 24.000 270.600 24.000 L 259.200 24.000 259.200 29.864 M72.000 41.392 L 72.000 47.200 66.200 47.200 L 60.400 47.200 60.400 53.000 L 60.400 58.800 66.200 58.800 L 72.000 58.800 72.000 53.008 L 72.000 47.216 80.700 47.108 L 89.400 47.000 89.400 41.400 L 89.400 35.800 80.700 35.692 L 72.000 35.584 72.000 41.392 M118.800 41.411 L 118.800 47.222 124.500 47.111 L 130.200 47.000 130.311 41.300 L 130.422 35.600 124.611 35.600 L 118.800 35.600 118.800 41.411 M247.200 41.400 L 247.200 47.200 253.000 47.200 L 258.800 47.200 258.800 41.400 L 258.800 35.600 253.000 35.600 L 247.200 35.600 247.200 41.400 M282.400 41.406 L 282.400 47.212 293.900 47.106 L 305.400 47.000 305.511 41.300 L 305.622 35.600 294.011 35.600 L 282.400 35.600 282.400 41.406 M107.200 53.000 L 107.200 58.800 112.800 58.800 L 118.400 58.800 118.400 53.000 L 118.400 47.200 112.800 47.200 L 107.200 47.200 107.200 53.000 M259.200 53.000 L 259.200 58.800 264.800 58.800 L 270.400 58.800 270.400 53.000 L 270.400 47.200 264.800 47.200 L 259.200 47.200 259.200 53.000 M305.689 52.900 L 305.800 58.600 311.500 58.711 L 317.200 58.822 317.200 53.011 L 317.200 47.200 311.389 47.200 L 305.578 47.200 305.689 52.900 M48.988 59.289 C 48.881 59.570,48.840 72.670,48.897 88.400 L 49.000 117.000 54.689 117.111 L 60.378 117.222 60.489 122.911 L 60.600 128.600 66.300 128.711 L 72.000 128.822 72.000 134.600 L 72.000 140.379 77.900 140.489 L 83.800 140.600 83.911 146.300 L 84.022 152.000 101.411 152.000 L 118.800 152.000 118.800 175.397 L 118.800 198.794 95.500 198.897 L 72.200 199.000 72.082 201.900 L 71.965 204.800 66.182 204.800 L 60.400 204.800 60.400 225.200 L 60.400 245.600 54.600 245.600 L 48.800 245.600 48.800 263.000 L 48.800 280.400 54.600 280.400 L 60.400 280.400 60.400 286.154 L 60.400 291.908 48.600 292.203 L 36.800 292.498 36.800 298.038 L 36.800 303.578 31.100 303.689 L 25.400 303.800 25.289 309.700 L 25.179 315.600 13.589 315.600 L 2.000 315.600 2.000 321.200 L 2.000 326.800 13.600 326.800 L 25.200 326.800 25.200 321.211 L 25.200 315.622 30.900 315.511 L 36.600 315.400 36.711 309.500 L 36.821 303.600 54.411 303.600 L 72.000 303.600 72.000 309.357 C 72.000 315.922,71.813 315.600,75.633 315.600 L 78.000 315.600 78.000 321.200 L 78.000 326.800 92.400 326.800 L 106.800 326.800 106.800 321.206 L 106.800 315.612 95.300 315.506 L 83.800 315.400 83.800 309.600 L 83.800 303.800 101.200 303.800 L 118.600 303.800 118.706 315.500 L 118.812 327.200 113.010 327.200 L 107.208 327.200 107.104 344.700 L 107.000 362.200 101.300 362.311 L 95.600 362.422 95.600 373.779 L 95.600 385.136 100.900 385.277 C 103.815 385.354,106.425 385.349,106.700 385.266 C 107.069 385.154,107.200 383.657,107.200 379.563 L 107.200 374.012 118.700 373.906 L 130.200 373.800 130.311 367.900 L 130.421 362.000 136.211 362.000 L 142.000 362.000 142.000 356.200 L 142.000 350.400 147.800 350.400 L 153.600 350.400 153.600 344.600 L 153.600 338.800 159.382 338.800 L 165.165 338.800 165.282 335.900 L 165.400 333.000 168.283 332.883 L 171.166 332.766 171.283 329.883 L 171.400 327.000 174.300 326.882 L 177.200 326.765 177.200 315.178 L 177.200 303.592 194.500 303.696 L 211.800 303.800 211.911 309.700 L 212.021 315.600 206.211 315.600 L 200.400 315.600 200.400 321.400 L 200.400 327.200 188.800 327.200 L 177.200 327.200 177.200 333.000 L 177.200 338.800 194.800 338.800 L 212.400 338.800 212.400 344.600 L 212.400 350.400 220.989 350.400 L 229.578 350.400 229.689 356.100 L 229.800 361.800 232.692 361.917 L 235.584 362.035 235.692 370.717 L 235.800 379.400 241.500 379.511 L 247.200 379.622 247.200 376.822 L 247.200 374.022 252.900 373.911 L 258.600 373.800 258.702 330.100 L 258.804 286.400 253.002 286.400 L 247.200 286.400 247.200 289.200 L 247.200 292.000 212.200 292.000 L 177.200 292.000 177.200 289.200 L 177.200 286.400 171.418 286.400 L 165.637 286.400 165.518 289.100 L 165.400 291.800 130.300 291.902 L 95.200 292.004 95.200 286.191 L 95.200 280.378 89.500 280.489 L 83.800 280.600 83.694 292.100 L 83.588 303.600 77.794 303.600 L 72.000 303.600 72.000 292.260 L 72.000 280.921 68.100 280.662 C 65.955 280.520,63.345 280.403,62.300 280.402 L 60.400 280.400 60.400 274.600 L 60.400 268.800 63.189 268.800 L 65.979 268.800 66.089 262.900 L 66.200 257.000 69.100 256.882 L 72.000 256.765 72.000 251.182 L 72.000 245.600 77.800 245.600 L 83.600 245.600 83.600 251.400 L 83.600 257.200 77.800 257.200 L 72.000 257.200 72.000 263.000 L 72.000 268.800 95.400 268.800 L 118.800 268.800 118.800 274.600 L 118.800 280.400 130.400 280.400 L 142.000 280.400 142.000 268.800 L 142.000 257.200 136.206 257.200 L 130.412 257.200 130.306 245.500 L 130.200 233.800 124.600 233.800 L 119.000 233.800 118.800 239.600 L 118.600 245.400 101.200 245.400 L 83.800 245.400 83.600 239.600 L 83.400 233.800 77.700 233.689 L 72.000 233.578 72.000 221.989 L 72.000 210.400 101.200 210.400 L 130.400 210.400 130.400 219.200 L 130.400 228.000 136.182 228.000 L 141.965 228.000 142.082 225.100 L 142.200 222.200 156.700 222.095 L 171.200 221.990 171.200 216.195 L 171.200 210.400 150.797 210.400 L 130.395 210.400 130.497 181.300 L 130.600 152.200 136.300 152.089 L 142.000 151.978 142.000 146.189 L 142.000 140.400 147.800 140.400 L 153.600 140.400 153.600 151.996 L 153.600 163.592 171.100 163.696 L 188.600 163.800 188.703 193.100 L 188.805 222.400 180.003 222.400 L 171.200 222.400 171.200 228.000 L 171.200 233.600 191.500 233.614 C 202.665 233.622,217.110 233.667,223.600 233.714 L 235.400 233.800 235.400 245.400 L 235.400 257.000 229.700 257.111 L 224.000 257.222 224.000 263.011 L 224.000 268.800 241.400 268.800 L 258.800 268.800 258.800 257.206 L 258.800 245.612 270.300 245.506 L 281.800 245.400 281.911 239.705 L 282.022 234.010 267.511 233.905 L 253.000 233.800 253.000 228.000 L 253.000 222.200 255.900 222.082 L 258.800 221.965 258.800 216.182 L 258.800 210.400 270.400 210.400 L 282.000 210.400 282.000 204.600 L 282.000 198.800 270.400 198.800 L 258.800 198.800 258.800 169.600 L 258.800 140.400 282.200 140.400 L 305.600 140.400 305.600 134.611 L 305.600 128.822 311.300 128.711 L 317.000 128.600 317.111 122.911 L 317.222 117.222 322.911 117.111 L 328.600 117.000 328.600 88.000 L 328.600 59.000 323.000 59.000 L 317.400 59.000 317.297 88.100 L 317.195 117.200 311.397 117.200 L 305.600 117.200 305.600 123.004 L 305.600 128.808 288.100 128.704 L 270.600 128.600 270.496 111.300 L 270.392 94.000 264.796 94.000 L 259.200 94.000 259.199 102.700 C 259.198 107.485,259.080 115.315,258.935 120.100 L 258.673 128.800 252.936 128.800 L 247.200 128.800 247.200 169.604 L 247.200 210.408 229.700 210.304 L 212.200 210.200 212.089 187.800 C 212.029 175.480,212.077 164.995,212.197 164.500 L 212.415 163.600 223.908 163.599 L 235.400 163.597 235.394 153.299 C 235.390 147.634,235.345 142.415,235.294 141.700 L 235.200 140.400 194.400 140.400 L 153.600 140.400 153.600 123.224 C 153.600 113.777,153.748 105.956,153.930 105.844 C 154.111 105.732,172.462 105.597,194.709 105.544 L 235.159 105.448 235.279 100.024 C 235.346 97.041,235.300 94.464,235.178 94.298 C 235.056 94.132,214.097 94.042,188.601 94.098 L 142.245 94.200 142.188 108.800 C 142.156 116.830,142.101 127.225,142.065 131.900 L 142.000 140.400 136.200 140.400 L 130.400 140.400 130.400 146.200 L 130.400 152.000 124.600 152.000 L 118.800 152.000 118.800 146.200 L 118.800 140.400 121.582 140.400 L 124.365 140.400 124.482 137.500 L 124.600 134.600 127.500 134.482 L 130.400 134.365 130.400 119.982 L 130.400 105.600 124.606 105.600 L 118.812 105.600 118.706 117.100 L 118.600 128.600 101.200 128.600 L 83.800 128.600 83.689 122.900 L 83.578 117.200 77.789 117.200 L 72.000 117.200 72.000 111.400 L 72.000 105.600 66.203 105.600 L 60.406 105.600 60.303 82.300 L 60.200 59.000 54.692 58.889 C 50.506 58.804,49.137 58.900,48.988 59.289 M95.867 59.067 C 95.720 59.213,95.600 67.043,95.600 76.467 L 95.600 93.600 101.200 93.600 L 106.800 93.600 106.800 76.200 L 106.800 58.800 101.467 58.800 C 98.533 58.800,96.013 58.920,95.867 59.067 M270.800 76.189 L 270.800 93.600 276.604 93.600 L 282.408 93.600 282.304 76.300 L 282.200 59.000 276.500 58.889 L 270.800 58.778 270.800 76.189 M107.200 99.800 L 107.200 105.600 112.800 105.600 L 118.400 105.600 118.400 99.800 L 118.400 94.000 112.800 94.000 L 107.200 94.000 107.200 99.800 M235.600 111.400 L 235.600 117.200 241.400 117.200 L 247.200 117.200 247.200 111.400 L 247.200 105.600 241.400 105.600 L 235.600 105.600 235.600 111.400 M282.400 222.000 L 282.400 233.600 288.000 233.600 L 293.600 233.600 293.600 222.000 L 293.600 210.400 288.000 210.400 L 282.400 210.400 282.400 222.000 M153.795 234.500 C 153.674 234.995,153.626 240.260,153.688 246.200 L 153.800 257.000 159.500 257.111 L 165.200 257.222 165.200 245.411 L 165.200 233.600 159.608 233.600 C 154.140 233.600,154.010 233.620,153.795 234.500 M282.400 251.464 L 282.400 257.328 291.465 257.064 C 296.450 256.919,312.200 256.800,326.465 256.800 L 352.400 256.800 352.400 251.200 L 352.400 245.600 317.400 245.600 L 282.400 245.600 282.400 251.464 M165.600 262.989 L 165.600 268.800 171.400 268.800 L 177.200 268.800 177.200 274.600 L 177.200 280.400 188.800 280.400 L 200.400 280.400 200.400 274.600 L 200.400 268.800 188.811 268.800 L 177.222 268.800 177.111 263.100 L 177.000 257.400 171.300 257.289 L 165.600 257.178 165.600 262.989 M352.400 263.000 L 352.400 268.800 364.000 268.800 L 375.600 268.800 375.600 263.000 L 375.600 257.200 364.000 257.200 L 352.400 257.200 352.400 263.000 M375.775 269.321 C 375.665 269.608,375.626 272.173,375.687 275.021 L 375.800 280.200 381.500 280.311 L 387.200 280.422 387.200 274.611 L 387.200 268.800 381.587 268.800 C 377.345 268.800,375.926 268.927,375.775 269.321 M13.600 286.200 L 13.600 292.000 19.400 292.000 L 25.200 292.000 25.200 286.200 L 25.200 280.400 19.400 280.400 L 13.600 280.400 13.600 286.200 M387.600 292.000 L 387.600 303.600 393.200 303.600 L 398.800 303.600 398.800 292.259 L 398.800 280.919 395.500 280.662 C 393.685 280.520,391.165 280.404,389.900 280.402 L 387.600 280.400 387.600 292.000 M165.350 304.850 C 165.671 306.453,165.676 314.136,165.357 314.967 C 165.151 315.504,164.238 315.600,159.357 315.600 L 153.600 315.600 153.600 321.406 L 153.600 327.212 142.100 327.106 L 130.600 327.000 130.489 321.300 L 130.378 315.600 136.189 315.600 L 142.000 315.600 142.000 309.867 C 142.000 306.713,142.120 304.013,142.267 303.867 C 142.413 303.720,147.611 303.600,153.817 303.600 L 165.100 303.600 165.350 304.850 M235.511 309.700 L 235.621 315.600 241.411 315.600 L 247.200 315.600 247.200 321.400 L 247.200 327.200 235.600 327.200 L 224.000 327.200 224.000 315.667 C 224.000 309.323,224.125 304.008,224.277 303.856 C 224.430 303.703,226.995 303.628,229.977 303.689 L 235.400 303.800 235.511 309.700 M375.867 304.267 C 375.484 304.649,375.548 314.499,375.937 315.112 C 376.181 315.496,377.604 315.596,381.631 315.512 L 387.000 315.400 387.111 309.700 L 387.222 304.000 381.678 304.000 C 378.628 304.000,376.013 304.120,375.867 304.267 M352.400 321.200 L 352.400 326.800 364.000 326.800 L 375.600 326.800 375.600 321.200 L 375.600 315.600 364.000 315.600 L 352.400 315.600 352.400 321.200 M288.269 327.464 C 288.121 327.612,288.000 330.223,288.000 333.267 L 288.000 338.800 320.211 338.800 L 352.422 338.800 352.311 333.100 L 352.200 327.400 320.369 327.298 C 302.862 327.241,288.417 327.316,288.269 327.464 M142.000 344.600 L 142.000 350.400 136.200 350.400 L 130.400 350.400 130.400 344.600 L 130.400 338.800 136.200 338.800 L 142.000 338.800 142.000 344.600 M247.200 344.600 L 247.200 350.400 241.400 350.400 L 235.600 350.400 235.600 344.600 L 235.600 338.800 241.400 338.800 L 247.200 338.800 247.200 344.600 " stroke="none" fill="#050606" fill-rule="evenodd"></path><path id="path1" d="M153.867 105.867 C 153.720 106.013,153.600 113.843,153.600 123.267 L 153.600 140.400 147.800 140.400 L 142.000 140.400 142.000 146.189 L 142.000 151.978 136.300 152.089 L 130.600 152.200 130.497 181.300 L 130.395 210.400 101.197 210.400 L 72.000 210.400 72.000 221.989 L 72.000 233.578 77.700 233.689 L 83.400 233.800 83.600 239.600 L 83.800 245.400 101.200 245.400 L 118.600 245.400 118.800 239.600 L 119.000 233.800 124.600 233.800 L 130.200 233.800 130.306 245.500 L 130.412 257.200 136.206 257.200 L 142.000 257.200 142.000 268.797 L 142.000 280.394 118.700 280.497 L 95.400 280.600 95.289 286.302 L 95.178 292.004 130.289 291.902 L 165.400 291.800 165.518 289.100 L 165.637 286.400 171.418 286.400 L 177.200 286.400 177.200 289.200 L 177.200 292.000 212.211 292.000 L 247.222 292.000 247.111 286.300 L 247.000 280.600 212.100 280.498 L 177.200 280.396 177.200 274.598 L 177.200 268.800 171.411 268.800 L 165.622 268.800 165.511 263.100 L 165.400 257.400 159.600 257.200 L 153.800 257.000 153.688 246.200 C 153.626 240.260,153.674 234.995,153.795 234.500 C 154.015 233.601,154.028 233.600,162.619 233.600 L 171.222 233.600 171.111 227.900 L 171.000 222.200 156.600 222.200 L 142.200 222.200 142.000 228.000 L 141.800 233.800 136.100 233.911 L 130.400 234.022 130.400 222.211 L 130.400 210.400 153.800 210.400 L 177.200 210.400 177.200 193.011 L 177.200 175.622 182.900 175.511 L 188.600 175.400 188.600 169.600 L 188.600 163.800 171.100 163.696 L 153.600 163.592 153.600 151.996 L 153.600 140.400 188.600 140.400 L 223.600 140.400 223.600 128.811 L 223.600 117.222 217.900 117.111 L 212.200 117.000 212.089 111.300 L 211.978 105.600 183.056 105.600 C 167.148 105.600,154.013 105.720,153.867 105.867 M224.000 111.400 L 224.000 117.200 229.800 117.200 L 235.600 117.200 235.600 123.011 L 235.600 128.822 241.300 128.711 L 247.000 128.600 247.111 122.900 L 247.222 117.200 241.411 117.200 L 235.600 117.200 235.600 111.400 L 235.600 105.600 229.800 105.600 L 224.000 105.600 224.000 111.400 M212.199 164.494 C 212.078 164.992,212.029 175.480,212.089 187.800 L 212.200 210.200 217.896 210.311 L 223.591 210.422 223.696 193.111 L 223.800 175.800 229.600 175.600 L 235.400 175.400 235.400 169.600 L 235.400 163.800 223.909 163.694 L 212.418 163.588 212.199 164.494 M212.400 251.194 L 212.400 268.800 218.200 268.800 L 224.000 268.800 224.000 263.011 L 224.000 257.222 229.700 257.111 L 235.400 257.000 235.400 245.400 L 235.400 233.800 223.900 233.694 L 212.400 233.588 212.400 251.194 M37.200 263.000 L 37.200 280.400 43.000 280.400 L 48.800 280.400 48.800 286.200 L 48.800 292.000 54.600 292.000 L 60.400 292.000 60.400 286.200 L 60.400 280.400 54.600 280.400 L 48.800 280.400 48.800 263.000 L 48.800 245.600 43.000 245.600 L 37.200 245.600 37.200 263.000 M282.400 268.789 L 282.400 280.400 288.200 280.400 L 294.000 280.400 294.000 292.000 L 294.000 303.600 299.789 303.600 L 305.579 303.600 305.689 309.500 L 305.800 315.400 323.089 315.504 L 340.379 315.608 340.489 309.704 L 340.600 303.800 352.289 303.694 L 363.978 303.588 364.089 297.894 L 364.200 292.200 369.900 292.089 L 375.600 291.978 375.600 286.189 L 375.600 280.400 334.806 280.400 L 294.012 280.400 293.906 268.900 L 293.800 257.400 288.100 257.289 L 282.400 257.178 282.400 268.789 M2.000 292.200 L 2.000 315.600 13.589 315.600 L 25.179 315.600 25.289 309.700 L 25.400 303.800 31.100 303.689 L 36.800 303.578 36.800 291.989 L 36.800 280.400 31.000 280.400 L 25.200 280.400 25.200 274.600 L 25.200 268.800 13.600 268.800 L 2.000 268.800 2.000 292.200 M25.200 292.211 L 25.200 304.022 19.500 303.911 L 13.800 303.800 13.694 292.100 L 13.588 280.400 19.394 280.400 L 25.200 280.400 25.200 292.211 M270.677 280.656 C 270.525 280.809,270.400 283.423,270.400 286.467 L 270.400 292.000 276.411 292.000 L 282.422 292.000 282.311 286.300 L 282.200 280.600 276.577 280.489 C 273.485 280.429,270.830 280.504,270.677 280.656 M258.894 303.900 L 259.000 315.400 270.700 315.506 L 282.400 315.612 282.400 321.417 L 282.400 327.222 288.100 327.111 L 293.800 327.000 293.906 315.506 L 294.012 304.012 282.306 303.906 L 270.600 303.800 270.489 298.100 L 270.378 292.400 264.583 292.400 L 258.788 292.400 258.894 303.900 M142.267 303.867 C 142.120 304.013,142.000 306.713,142.000 309.867 L 142.000 315.600 136.189 315.600 L 130.378 315.600 130.489 321.300 L 130.600 327.000 142.100 327.106 L 153.600 327.212 153.600 321.406 L 153.600 315.600 159.357 315.600 C 164.238 315.600,165.151 315.504,165.357 314.967 C 165.676 314.136,165.671 306.453,165.350 304.850 L 165.100 303.600 153.817 303.600 C 147.611 303.600,142.413 303.720,142.267 303.867 M177.200 315.396 L 177.200 327.200 188.800 327.200 L 200.400 327.200 200.400 321.400 L 200.400 315.600 206.211 315.600 L 212.021 315.600 211.911 309.700 L 211.800 303.800 194.500 303.696 L 177.200 303.592 177.200 315.396 M224.277 303.856 C 224.125 304.008,224.000 309.323,224.000 315.667 L 224.000 327.200 235.600 327.200 L 247.200 327.200 247.200 321.400 L 247.200 315.600 241.411 315.600 L 235.621 315.600 235.511 309.700 L 235.400 303.800 229.977 303.689 C 226.995 303.628,224.430 303.703,224.277 303.856 M130.400 344.600 L 130.400 350.400 136.200 350.400 L 142.000 350.400 142.000 344.600 L 142.000 338.800 136.200 338.800 L 130.400 338.800 130.400 344.600 M235.600 344.600 L 235.600 350.400 241.400 350.400 L 247.200 350.400 247.200 344.600 L 247.200 338.800 241.400 338.800 L 235.600 338.800 235.600 344.600 M252.700 373.911 L 247.200 374.022 247.200 379.811 L 247.200 385.600 258.800 385.600 L 270.400 385.600 270.400 379.820 L 270.400 374.040 264.300 373.920 C 260.945 373.854,255.725 373.850,252.700 373.911 M107.200 379.806 L 107.200 385.612 118.700 385.506 L 130.200 385.400 130.311 379.700 L 130.422 374.000 118.811 374.000 L 107.200 374.000 107.200 379.806 " stroke="none" fill="#04abf3" fill-rule="evenodd"></path><path id="path2" d="M0.000 204.400 L 0.000 408.800 200.000 408.800 L 400.000 408.800 400.000 204.400 L 400.000 0.000 200.000 0.000 L 0.000 0.000 0.000 204.400 M118.938 27.500 C 119.080 29.645,119.197 32.255,119.198 33.300 L 119.200 35.200 124.766 35.200 L 130.332 35.200 130.594 38.100 C 130.739 39.695,130.799 42.350,130.729 44.000 L 130.600 47.000 124.938 47.111 L 119.276 47.222 119.138 52.711 C 118.962 59.719,119.471 59.200,112.776 59.200 L 107.200 59.200 107.200 76.389 L 107.200 93.579 113.072 93.689 L 118.944 93.800 118.972 99.400 L 119.000 105.000 124.656 105.111 L 130.312 105.221 130.511 114.111 C 130.620 119.000,130.685 124.260,130.655 125.800 L 130.600 128.600 136.100 128.711 L 141.600 128.823 141.671 126.311 C 141.710 124.930,141.761 117.050,141.786 108.800 L 141.831 93.800 188.787 93.800 L 235.743 93.800 235.771 99.400 L 235.800 105.000 241.489 105.111 L 247.179 105.222 247.289 111.111 L 247.400 117.000 252.852 117.111 L 258.304 117.222 258.591 114.550 C 258.748 113.081,258.748 108.521,258.590 104.416 C 258.433 100.311,258.431 96.199,258.587 95.277 L 258.870 93.600 264.635 93.600 L 270.400 93.600 270.400 76.400 L 270.400 59.200 264.600 59.200 C 260.245 59.200,258.791 59.075,258.766 58.700 C 258.747 58.425,258.702 55.770,258.666 52.800 L 258.600 47.400 252.800 47.200 L 247.000 47.000 246.870 44.400 C 246.798 42.970,246.859 40.315,247.006 38.500 L 247.272 35.200 253.083 35.200 L 258.895 35.200 258.748 29.500 L 258.600 23.800 270.500 23.694 L 282.400 23.588 282.400 29.394 L 282.400 35.200 293.957 35.200 C 304.127 35.200,305.544 35.276,305.757 35.833 C 305.891 36.181,306.000 38.786,306.000 41.622 L 306.000 46.778 311.700 46.889 L 317.400 47.000 317.511 52.689 L 317.622 58.378 323.311 58.489 L 329.000 58.600 329.103 87.900 L 329.205 117.200 323.403 117.200 L 317.600 117.200 317.600 122.567 C 317.600 129.815,318.159 129.200,311.568 129.200 L 306.022 129.200 305.911 134.900 L 305.800 140.600 282.500 140.703 L 259.200 140.806 259.200 169.559 L 259.200 198.311 267.700 198.527 C 272.375 198.645,277.550 198.710,279.200 198.671 L 282.200 198.600 282.311 204.500 L 282.421 210.400 288.150 210.400 L 293.878 210.400 294.156 217.591 C 294.309 221.546,294.310 226.856,294.158 229.391 L 293.883 234.000 288.141 234.000 L 282.400 234.000 282.400 239.600 L 282.400 245.200 317.400 245.200 L 352.400 245.200 352.400 250.994 L 352.400 256.788 364.100 256.894 L 375.800 257.000 375.911 262.900 L 376.021 268.800 381.811 268.800 L 387.600 268.800 387.600 274.400 L 387.600 280.000 389.500 280.002 C 390.545 280.003,393.155 280.120,395.300 280.262 L 399.200 280.521 399.200 292.260 L 399.200 304.000 393.400 304.000 L 387.600 304.000 387.600 309.800 L 387.600 315.600 381.811 315.600 L 376.021 315.600 375.911 321.500 L 375.800 327.400 364.100 327.506 L 352.400 327.612 352.400 333.206 L 352.400 338.800 320.200 338.800 L 288.000 338.800 288.000 333.018 L 288.000 327.235 285.100 327.118 L 282.200 327.000 282.351 321.300 L 282.501 315.600 270.851 315.600 L 259.200 315.600 259.200 344.600 L 259.200 373.600 264.773 373.600 C 271.447 373.600,270.991 373.063,270.584 380.425 L 270.297 385.600 258.749 385.600 L 247.200 385.600 247.200 382.811 L 247.200 380.021 241.300 379.911 L 235.400 379.800 235.292 371.100 L 235.184 362.400 232.392 362.400 L 229.600 362.400 229.600 356.608 L 229.600 350.816 220.900 350.708 L 212.200 350.600 212.000 344.800 L 211.800 339.000 194.300 338.896 L 176.800 338.792 176.800 333.196 L 176.800 327.600 174.200 327.600 L 171.600 327.600 171.600 330.400 L 171.600 333.200 168.600 333.200 L 165.600 333.200 165.600 336.000 L 165.600 338.800 159.811 338.800 L 154.021 338.800 153.911 344.700 L 153.800 350.600 148.111 350.711 L 142.422 350.822 142.311 356.511 L 142.200 362.200 136.562 362.311 L 130.925 362.421 130.662 369.074 C 130.518 372.734,130.400 377.949,130.400 380.664 L 130.400 385.600 112.800 385.600 L 95.200 385.600 95.200 373.800 L 95.200 362.000 101.000 362.000 L 106.800 362.000 106.800 344.800 L 106.800 327.600 92.833 327.600 C 85.151 327.600,78.581 327.491,78.233 327.357 C 77.696 327.151,77.600 326.238,77.600 321.357 L 77.600 315.600 74.843 315.600 C 71.468 315.600,71.600 315.862,71.600 309.167 L 71.600 304.000 54.400 304.000 L 37.200 304.000 37.200 309.800 L 37.200 315.600 31.400 315.600 L 25.600 315.600 25.600 320.967 C 25.600 323.919,25.491 326.619,25.357 326.967 C 25.033 327.812,2.211 327.941,1.902 327.100 C 1.801 326.825,1.806 313.595,1.914 297.700 L 2.110 268.800 13.644 268.800 L 25.178 268.800 25.289 274.500 L 25.400 280.200 31.100 280.311 L 36.800 280.422 36.800 263.058 L 36.800 245.695 48.396 245.400 L 59.993 245.105 60.096 224.853 L 60.200 204.600 65.883 204.489 L 71.565 204.378 71.683 201.489 L 71.800 198.600 95.100 198.600 L 118.400 198.600 118.400 175.500 L 118.400 152.400 101.008 152.400 L 83.615 152.400 83.354 151.360 C 83.211 150.789,83.181 148.183,83.289 145.571 L 83.485 140.821 77.642 140.710 L 71.800 140.600 71.689 134.911 L 71.578 129.222 65.889 129.111 L 60.200 129.000 60.089 123.100 L 59.979 117.200 54.187 117.200 L 48.395 117.200 48.497 87.900 L 48.600 58.600 54.300 58.489 L 60.000 58.378 60.000 52.832 C 60.000 46.251,59.414 46.800,66.433 46.800 L 71.600 46.800 71.600 41.633 C 71.600 34.479,70.564 35.200,80.843 35.200 L 89.600 35.200 89.600 41.200 L 89.600 47.200 86.600 47.200 L 83.600 47.200 83.600 52.989 L 83.600 58.778 77.900 58.889 L 72.200 59.000 72.096 76.289 L 71.992 93.578 77.696 93.689 L 83.400 93.800 83.600 99.600 L 83.800 105.400 89.497 105.511 L 95.194 105.622 95.297 82.111 L 95.400 58.600 101.100 58.489 L 106.800 58.378 106.800 52.800 L 106.800 47.222 101.100 47.111 L 95.400 47.000 95.294 35.300 L 95.188 23.600 106.934 23.600 L 118.679 23.600 118.938 27.500 M270.888 35.937 C 270.504 36.181,270.404 37.604,270.488 41.631 L 270.600 47.000 276.300 47.111 L 282.000 47.222 282.000 41.411 L 282.000 35.600 276.700 35.606 C 273.785 35.609,271.170 35.758,270.888 35.937 M282.400 52.983 L 282.400 58.778 288.100 58.889 L 293.800 59.000 293.906 70.489 L 294.012 81.978 299.706 82.089 L 305.400 82.200 305.506 93.911 L 305.612 105.622 311.306 105.511 L 317.000 105.400 317.103 82.300 L 317.206 59.200 311.403 59.200 C 307.046 59.200,305.591 59.075,305.566 58.700 C 305.547 58.425,305.502 55.770,305.466 52.800 L 305.400 47.400 293.900 47.294 L 282.400 47.188 282.400 52.983 M95.289 111.300 L 95.400 117.000 101.200 117.000 L 107.000 117.000 107.111 111.300 L 107.222 105.600 101.200 105.600 L 95.178 105.600 95.289 111.300 M212.400 111.389 L 212.400 117.200 217.964 117.200 L 223.528 117.200 223.795 113.900 C 223.942 112.085,224.003 109.520,223.931 108.200 L 223.800 105.800 218.100 105.689 L 212.400 105.578 212.400 111.389 M224.000 128.789 L 224.000 140.400 229.746 140.400 L 235.491 140.400 235.725 142.107 C 235.976 143.934,235.668 174.263,235.391 175.100 C 235.269 175.468,233.748 175.600,229.613 175.600 L 224.000 175.600 224.000 193.000 L 224.000 210.400 235.373 210.400 C 245.867 210.400,246.760 210.346,246.931 209.700 C 247.033 209.315,247.086 191.000,247.049 169.000 L 246.981 129.000 241.301 128.889 L 235.622 128.778 235.511 123.089 L 235.400 117.400 229.700 117.289 L 224.000 117.178 224.000 128.789 M124.800 137.600 L 124.800 140.400 127.600 140.400 L 130.400 140.400 130.400 137.600 L 130.400 134.800 127.600 134.800 L 124.800 134.800 124.800 137.600 M177.200 193.000 L 177.200 210.400 174.400 210.400 L 171.600 210.400 171.600 216.200 L 171.600 222.000 180.000 222.000 L 188.400 222.000 188.400 198.800 L 188.400 175.600 182.800 175.600 L 177.200 175.600 177.200 193.000 M259.111 216.500 L 259.000 222.200 256.100 222.318 L 253.200 222.435 253.200 228.018 L 253.200 233.600 267.600 233.600 L 282.000 233.600 282.000 222.200 L 282.000 210.800 270.611 210.800 L 259.222 210.800 259.111 216.500 M130.400 230.800 L 130.400 233.600 136.200 233.600 L 142.000 233.600 142.000 230.800 L 142.000 228.000 136.200 228.000 L 130.400 228.000 130.400 230.800 M165.873 234.261 C 165.723 234.411,165.600 239.543,165.600 245.667 L 165.600 256.800 171.400 256.800 L 177.200 256.800 177.200 262.800 L 177.200 268.800 188.800 268.800 L 200.400 268.800 200.400 263.011 L 200.400 257.222 194.700 257.111 L 189.000 257.000 188.800 245.600 L 188.600 234.200 177.373 234.094 C 171.198 234.036,166.023 234.111,165.873 234.261 M270.400 251.400 L 270.400 257.200 264.811 257.200 L 259.221 257.200 259.111 263.100 L 259.000 269.000 229.900 268.906 L 200.800 268.812 200.800 274.606 L 200.800 280.400 224.000 280.400 L 247.200 280.400 247.200 283.189 L 247.200 285.979 253.100 286.089 L 259.000 286.200 259.118 289.100 L 259.235 292.000 264.818 292.000 L 270.400 292.000 270.400 286.200 L 270.400 280.400 276.411 280.400 L 282.421 280.400 282.311 286.300 L 282.200 292.200 276.400 292.200 L 270.600 292.200 270.618 293.900 C 270.628 294.835,270.673 297.400,270.718 299.600 L 270.800 303.600 282.406 303.600 L 294.012 303.600 293.906 292.100 L 293.800 280.600 288.140 280.489 L 282.479 280.379 282.188 275.327 C 282.028 272.549,282.015 269.005,282.159 267.451 C 282.304 265.898,282.299 260.346,282.148 255.113 L 281.875 245.600 276.137 245.600 L 270.400 245.600 270.400 251.400 M66.667 257.467 C 66.520 257.613,66.400 260.215,66.400 263.249 L 66.400 268.765 63.500 268.882 L 60.600 269.000 60.489 274.438 L 60.378 279.877 64.889 280.136 C 67.370 280.279,72.600 280.397,76.511 280.398 L 83.622 280.400 83.511 274.700 L 83.400 269.000 77.600 269.000 L 71.800 269.000 71.689 263.100 L 71.579 257.200 69.256 257.200 C 67.979 257.200,66.813 257.320,66.667 257.467 M295.900 257.522 L 294.000 257.644 294.000 269.022 L 294.000 280.400 334.800 280.400 L 375.600 280.400 375.600 274.845 L 375.600 269.291 373.752 269.014 C 372.736 268.861,368.101 268.846,363.452 268.981 C 358.804 269.115,354.370 269.077,353.600 268.896 L 352.200 268.568 352.089 263.084 L 351.977 257.600 348.689 257.544 C 341.714 257.424,297.702 257.406,295.900 257.522 M95.671 269.156 C 95.308 269.381,95.206 270.895,95.288 274.831 L 95.400 280.200 106.900 280.306 L 118.400 280.412 118.400 274.706 L 118.399 269.000 107.282 268.925 C 101.168 268.884,95.943 268.988,95.671 269.156 M37.200 286.200 L 37.200 292.000 42.800 292.000 L 48.400 292.000 48.400 286.200 L 48.400 280.400 42.800 280.400 L 37.200 280.400 37.200 286.200 M375.600 286.514 L 375.600 292.228 369.900 292.214 L 364.200 292.200 364.000 298.000 L 363.800 303.800 352.311 303.906 L 340.822 304.012 340.711 309.706 L 340.600 315.400 323.100 315.504 L 305.600 315.608 305.600 309.804 L 305.600 304.000 299.800 304.000 L 294.000 304.000 294.000 315.400 L 294.000 326.800 322.989 326.800 L 351.978 326.800 352.089 321.100 L 352.200 315.400 363.900 315.294 L 375.600 315.188 375.600 309.394 L 375.600 303.600 381.400 303.600 L 387.200 303.600 387.200 292.200 L 387.200 280.800 381.400 280.800 L 375.600 280.800 375.600 286.514 M13.600 298.000 L 13.600 303.600 19.400 303.600 L 25.200 303.600 25.200 298.000 L 25.200 292.400 19.400 292.400 L 13.600 292.400 13.600 298.000 M95.467 304.267 C 95.320 304.413,95.200 306.929,95.200 309.856 L 95.200 315.179 101.100 315.289 L 107.000 315.400 107.111 321.100 L 107.222 326.800 112.811 326.800 L 118.400 326.800 118.400 315.400 L 118.400 304.000 107.067 304.000 C 100.833 304.000,95.613 304.120,95.467 304.267 " stroke="none" fill="#f3f3f3" fill-rule="evenodd"></path><path id="path3" d="M95.289 41.300 L 95.400 47.000 107.100 47.106 L 118.800 47.212 118.800 41.406 L 118.800 35.600 106.989 35.600 L 95.178 35.600 95.289 41.300 M258.800 41.400 L 258.800 47.200 264.600 47.200 L 270.400 47.200 270.400 52.989 L 270.400 58.779 276.300 58.889 L 282.200 59.000 282.304 76.289 L 282.408 93.579 276.504 93.689 L 270.600 93.800 270.600 111.200 L 270.600 128.600 288.100 128.704 L 305.600 128.808 305.600 123.004 L 305.600 117.200 311.400 117.200 L 317.200 117.200 317.200 111.400 L 317.200 105.600 311.406 105.600 L 305.612 105.600 305.506 93.900 L 305.400 82.200 299.706 82.089 L 294.012 81.978 293.906 70.489 L 293.800 59.000 288.100 58.889 L 282.400 58.778 282.400 52.989 L 282.400 47.200 276.400 47.200 L 270.400 47.200 270.400 41.400 L 270.400 35.600 264.600 35.600 L 258.800 35.600 258.800 41.400 M72.000 53.000 L 72.000 58.800 66.200 58.800 L 60.400 58.800 60.400 82.200 L 60.400 105.600 66.200 105.600 L 72.000 105.600 72.000 111.400 L 72.000 117.200 77.789 117.200 L 83.578 117.200 83.689 122.900 L 83.800 128.600 101.200 128.600 L 118.600 128.600 118.706 117.100 L 118.812 105.600 113.017 105.600 L 107.221 105.600 107.111 99.700 L 107.000 93.800 101.200 93.800 L 95.400 93.800 95.289 99.711 L 95.178 105.622 89.489 105.511 L 83.800 105.400 83.600 99.600 L 83.400 93.800 77.700 93.689 L 72.000 93.578 72.000 76.189 L 72.000 58.800 77.800 58.800 L 83.600 58.800 83.600 53.000 L 83.600 47.200 77.800 47.200 L 72.000 47.200 72.000 53.000 M107.111 111.300 L 107.000 117.000 101.200 117.000 L 95.400 117.000 95.289 111.300 L 95.178 105.600 101.200 105.600 L 107.222 105.600 107.111 111.300 M247.200 123.000 L 247.200 128.800 253.000 128.800 L 258.800 128.800 258.800 123.000 L 258.800 117.200 253.000 117.200 L 247.200 117.200 247.200 123.000 M130.400 134.600 L 130.400 140.400 124.600 140.400 L 118.800 140.400 118.800 146.200 L 118.800 152.000 124.600 152.000 L 130.400 152.000 130.400 146.200 L 130.400 140.400 136.200 140.400 L 142.000 140.400 142.000 134.600 L 142.000 128.800 136.200 128.800 L 130.400 128.800 130.400 134.600 M188.983 234.099 C 188.875 234.381,188.835 239.648,188.894 245.805 L 189.000 257.000 194.700 257.111 L 200.400 257.222 200.400 263.011 L 200.400 268.800 206.204 268.800 L 212.008 268.800 211.904 251.300 L 211.800 233.800 200.490 233.694 C 191.596 233.610,189.138 233.697,188.983 234.099 M72.000 251.400 L 72.000 257.200 77.800 257.200 L 83.600 257.200 83.600 251.400 L 83.600 245.600 77.800 245.600 L 72.000 245.600 72.000 251.400 M258.889 251.300 L 259.000 257.000 264.700 257.111 L 270.400 257.222 270.400 251.411 L 270.400 245.600 264.589 245.600 L 258.778 245.600 258.889 251.300 M83.600 274.600 L 83.600 280.400 77.800 280.400 L 72.000 280.400 72.000 292.000 L 72.000 303.600 77.794 303.600 L 83.588 303.600 83.694 292.100 L 83.800 280.600 89.500 280.489 L 95.200 280.378 95.200 274.589 L 95.200 268.800 89.400 268.800 L 83.600 268.800 83.600 274.600 M83.775 304.120 C 83.665 304.406,83.626 307.061,83.688 310.020 L 83.800 315.400 89.500 315.511 L 95.200 315.622 95.200 309.611 L 95.200 303.600 89.587 303.600 C 85.350 303.600,83.926 303.727,83.775 304.120 " stroke="none" fill="#fac305" fill-rule="evenodd"></path><path id="path4" d="M95.288 29.700 L 95.377 35.800 95.499 29.900 L 95.621 24.000 107.011 24.000 L 118.400 24.000 118.400 29.800 L 118.400 35.600 124.500 35.512 L 130.600 35.424 124.900 35.301 L 119.200 35.178 119.198 33.289 C 119.197 32.250,119.080 29.645,118.938 27.500 L 118.679 23.600 106.940 23.600 L 95.200 23.600 95.288 29.700 M258.653 23.880 C 258.499 24.034,258.495 26.639,258.645 29.669 L 258.918 35.178 252.959 35.301 L 247.000 35.423 253.100 35.512 L 259.200 35.600 259.200 29.800 L 259.200 24.000 270.600 24.000 L 282.000 24.000 282.000 29.600 L 282.000 35.200 276.200 35.200 C 273.010 35.200,270.400 35.335,270.399 35.500 C 270.399 35.665,273.004 35.742,276.189 35.671 L 281.978 35.541 282.101 41.471 L 282.223 47.400 282.312 41.506 L 282.400 35.612 294.100 35.500 L 305.800 35.387 294.100 35.294 L 282.400 35.200 282.400 29.400 L 282.400 23.600 270.667 23.600 C 264.213 23.600,258.807 23.726,258.653 23.880 M74.800 35.477 C 82.181 35.763,89.601 35.774,89.601 35.500 C 89.600 35.335,85.595 35.236,80.700 35.280 C 75.805 35.325,73.150 35.413,74.800 35.477 M71.600 41.389 L 71.600 46.777 66.100 46.901 L 60.600 47.025 66.300 47.112 L 72.000 47.200 72.000 41.600 C 72.000 38.520,71.910 36.000,71.800 36.000 C 71.690 36.000,71.600 38.425,71.600 41.389 M305.688 41.067 C 305.639 43.964,305.508 46.574,305.395 46.867 C 305.228 47.300,306.322 47.377,311.195 47.280 L 317.200 47.160 317.200 52.980 L 317.200 58.800 311.587 58.800 C 306.140 58.800,305.964 58.773,305.612 57.900 C 305.410 57.397,305.242 57.265,305.231 57.600 C 305.178 59.268,305.387 59.295,317.251 59.144 L 328.600 59.000 328.600 88.100 C 328.600 104.105,328.736 117.200,328.903 117.200 C 329.069 117.200,329.159 104.015,329.103 87.900 L 329.000 58.600 323.311 58.489 L 317.622 58.378 317.511 52.689 L 317.400 47.000 311.711 46.889 L 306.022 46.778 305.899 41.289 L 305.775 35.800 305.688 41.067 M130.398 42.482 C 130.289 45.056,130.341 47.021,130.514 46.847 C 130.687 46.674,130.776 44.567,130.712 42.166 L 130.596 37.800 130.398 42.482 M246.950 42.600 C 246.951 45.020,247.016 45.958,247.096 44.685 C 247.176 43.412,247.175 41.432,247.094 40.285 C 247.014 39.138,246.949 40.180,246.950 42.600 M60.000 52.789 L 60.000 58.378 54.300 58.489 L 48.600 58.600 48.497 87.900 C 48.441 104.015,48.531 117.200,48.697 117.200 C 48.864 117.200,49.000 104.105,49.000 88.100 L 49.000 59.000 54.700 59.000 L 60.401 59.000 60.400 53.100 C 60.400 49.855,60.310 47.200,60.200 47.200 C 60.090 47.200,60.000 49.715,60.000 52.789 M106.888 52.689 L 106.800 58.378 101.100 58.489 L 95.400 58.600 95.392 76.400 L 95.383 94.200 95.592 76.600 L 95.800 59.000 101.300 58.889 L 106.800 58.777 106.800 76.389 L 106.800 94.000 112.600 94.000 L 118.400 94.000 118.400 99.800 L 118.400 105.600 124.500 105.517 L 130.600 105.434 124.800 105.217 L 119.000 105.000 118.972 99.400 L 118.944 93.800 113.072 93.689 L 107.200 93.579 107.200 76.389 L 107.200 59.200 112.776 59.200 C 116.798 59.200,118.443 59.061,118.676 58.700 C 119.202 57.888,119.353 47.200,118.838 47.200 C 118.541 47.200,118.400 49.062,118.400 53.000 L 118.400 58.800 112.811 58.800 L 107.221 58.800 107.099 52.900 L 106.977 47.000 106.888 52.689 M258.670 52.701 C 258.709 55.725,258.754 58.425,258.770 58.700 C 258.793 59.076,260.242 59.200,264.600 59.200 L 270.400 59.200 270.400 76.400 L 270.400 93.600 264.625 93.600 L 258.849 93.600 258.624 95.300 C 258.299 97.759,258.544 117.198,258.900 117.199 C 259.065 117.200,259.200 111.980,259.200 105.600 L 259.200 94.000 265.000 94.000 L 270.800 94.000 270.800 76.400 L 270.800 58.800 265.000 58.800 L 259.200 58.800 259.200 53.000 C 259.200 49.810,259.065 47.200,258.900 47.201 C 258.735 47.201,258.632 49.676,258.670 52.701 M142.000 93.698 C 142.000 93.754,141.904 98.381,141.786 103.980 C 141.669 109.579,141.661 114.072,141.769 113.964 C 141.877 113.857,142.067 109.366,142.192 103.984 L 142.420 94.200 188.872 94.200 L 235.324 94.200 235.235 99.900 L 235.146 105.600 241.273 105.517 L 247.400 105.434 241.600 105.217 L 235.800 105.000 235.771 99.400 L 235.743 93.800 188.871 93.698 C 163.092 93.642,142.000 93.642,142.000 93.698 M212.175 105.720 C 212.065 106.006,212.032 108.661,212.100 111.620 L 212.225 117.000 212.313 111.279 L 212.400 105.559 218.163 105.679 C 221.332 105.746,223.842 105.665,223.739 105.500 C 223.388 104.935,212.396 105.145,212.175 105.720 M130.554 118.800 C 130.554 121.550,130.618 122.675,130.696 121.300 C 130.774 119.925,130.774 117.675,130.696 116.300 C 130.618 114.925,130.554 116.050,130.554 118.800 M223.779 127.200 C 223.779 134.570,223.833 137.585,223.899 133.900 C 223.965 130.215,223.965 124.185,223.899 120.500 C 223.833 116.815,223.779 119.830,223.779 127.200 M142.153 119.000 C 142.153 121.640,142.218 122.668,142.297 121.284 C 142.375 119.901,142.374 117.741,142.295 116.484 C 142.216 115.228,142.152 116.360,142.153 119.000 M60.178 123.000 L 60.200 129.000 65.889 129.111 L 71.578 129.222 71.689 134.911 L 71.800 140.600 77.642 140.710 L 83.485 140.821 83.289 145.571 C 83.181 148.183,83.211 150.789,83.354 151.360 L 83.615 152.400 101.004 152.400 L 118.394 152.400 118.500 175.700 L 118.607 199.000 118.703 175.500 L 118.800 152.000 101.411 152.000 L 84.022 152.000 83.911 146.300 L 83.800 140.600 77.900 140.489 L 72.000 140.379 72.000 134.600 L 72.000 128.822 66.300 128.711 L 60.600 128.600 60.378 122.800 L 60.155 117.000 60.178 123.000 M317.193 122.800 L 317.000 128.600 311.300 128.711 L 305.600 128.822 305.600 134.611 L 305.600 140.400 282.200 140.400 L 258.800 140.400 258.800 169.600 L 258.800 198.800 263.300 198.715 L 267.800 198.630 263.500 198.502 L 259.200 198.373 259.200 169.590 L 259.200 140.806 282.500 140.703 L 305.800 140.600 305.911 134.900 L 306.022 129.200 311.603 129.200 C 318.235 129.200,317.689 129.848,317.508 122.200 L 317.385 117.000 317.193 122.800 M141.728 126.400 C 141.728 127.830,141.801 128.415,141.889 127.700 C 141.978 126.985,141.978 125.815,141.889 125.100 C 141.801 124.385,141.728 124.970,141.728 126.400 M246.953 138.200 C 246.953 140.840,247.018 141.868,247.097 140.484 C 247.175 139.101,247.174 136.941,247.095 135.684 C 247.016 134.428,246.952 135.560,246.953 138.200 M124.567 134.942 C 124.452 135.240,124.423 136.635,124.502 138.042 L 124.646 140.600 124.723 137.718 L 124.800 134.835 127.700 134.697 L 130.600 134.559 127.687 134.479 C 125.548 134.421,124.720 134.544,124.567 134.942 M235.341 152.181 C 235.309 158.709,235.359 163.974,235.452 163.881 C 235.757 163.576,235.964 143.441,235.679 141.855 C 235.525 141.006,235.374 145.652,235.341 152.181 M246.953 157.000 C 246.953 159.640,247.018 160.668,247.097 159.284 C 247.175 157.901,247.174 155.741,247.095 154.484 C 247.016 153.228,246.952 154.360,246.953 157.000 M246.953 176.200 C 246.953 178.840,247.018 179.868,247.097 178.484 C 247.175 177.101,247.174 174.941,247.095 173.684 C 247.016 172.428,246.952 173.560,246.953 176.200 M188.400 198.600 L 188.400 222.000 180.011 222.000 L 171.621 222.000 171.510 216.100 L 171.398 210.200 171.199 216.301 L 171.000 222.401 179.900 222.401 L 188.800 222.400 188.800 198.800 C 188.800 185.820,188.710 175.200,188.600 175.200 C 188.490 175.200,188.400 185.730,188.400 198.600 M223.784 193.200 C 223.784 202.770,223.836 206.685,223.900 201.900 C 223.963 197.115,223.963 189.285,223.900 184.500 C 223.836 179.715,223.784 183.630,223.784 193.200 M246.953 195.000 C 246.953 197.640,247.018 198.668,247.097 197.284 C 247.175 195.901,247.174 193.741,247.095 192.484 C 247.016 191.228,246.952 192.360,246.953 195.000 M71.867 198.667 C 71.720 198.813,71.600 200.158,71.600 201.656 L 71.600 204.378 65.900 204.489 L 60.200 204.600 60.096 224.889 L 59.993 245.179 54.096 245.301 L 48.200 245.423 54.300 245.512 L 60.400 245.600 60.400 225.200 L 60.400 204.800 66.182 204.800 L 71.965 204.800 72.082 201.900 L 72.200 199.000 74.400 198.765 L 76.600 198.530 74.367 198.465 C 73.138 198.429,72.013 198.520,71.867 198.667 M87.900 198.696 C 89.275 198.774,91.525 198.774,92.900 198.696 C 94.275 198.618,93.150 198.554,90.400 198.554 C 87.650 198.554,86.525 198.618,87.900 198.696 M107.500 198.696 C 108.875 198.774,111.125 198.774,112.500 198.696 C 113.875 198.618,112.750 198.554,110.000 198.554 C 107.250 198.554,106.125 198.618,107.500 198.696 M279.500 198.685 L 282.000 198.838 282.000 204.619 L 282.000 210.400 270.400 210.400 L 258.800 210.400 258.800 216.182 L 258.800 221.965 255.900 222.082 L 253.000 222.200 253.000 228.000 L 253.000 233.800 267.493 233.905 L 281.986 234.010 281.987 245.665 C 281.987 252.076,282.080 257.414,282.194 257.527 C 282.307 257.641,282.400 255.004,282.400 251.669 L 282.400 245.604 317.500 245.500 L 352.600 245.396 317.500 245.298 L 282.400 245.200 282.400 239.600 L 282.400 234.000 288.158 234.000 L 293.917 234.000 294.171 228.300 C 294.310 225.165,294.266 219.810,294.072 216.400 C 293.726 210.308,293.719 210.404,293.660 221.900 L 293.600 233.600 288.004 233.600 L 282.408 233.600 282.304 216.100 L 282.200 198.600 279.600 198.566 L 277.000 198.533 279.500 198.685 M282.000 222.200 L 282.000 233.600 267.600 233.600 L 253.200 233.600 253.200 228.018 L 253.200 222.435 256.100 222.318 L 259.000 222.200 259.111 216.500 L 259.222 210.800 270.611 210.800 L 282.000 210.800 282.000 222.200 M133.100 233.897 C 134.695 233.973,137.305 233.973,138.900 233.897 C 140.495 233.821,139.190 233.759,136.000 233.759 C 132.810 233.759,131.505 233.821,133.100 233.897 M165.200 245.500 L 165.200 257.400 171.200 257.400 C 174.500 257.400,177.200 257.265,177.200 257.100 C 177.200 256.935,174.587 256.800,171.394 256.800 L 165.588 256.800 165.694 245.500 L 165.800 234.200 177.349 234.118 C 183.701 234.073,188.996 233.938,189.116 233.818 C 189.235 233.698,183.903 233.600,177.267 233.600 L 165.200 233.600 165.200 245.500 M212.184 251.400 C 212.184 261.080,212.236 264.983,212.300 260.073 C 212.363 255.163,212.363 247.243,212.300 242.473 C 212.236 237.703,212.184 241.720,212.184 251.400 M36.897 268.900 L 36.800 292.400 42.800 292.400 L 48.800 292.400 48.712 286.300 L 48.623 280.200 48.501 286.100 L 48.379 292.000 42.793 292.000 L 37.206 292.000 37.100 268.700 L 36.993 245.400 36.897 268.900 M66.267 257.067 C 66.120 257.213,66.037 259.958,66.083 263.167 L 66.166 269.000 66.383 263.200 L 66.600 257.400 69.089 257.281 L 71.578 257.162 71.689 263.081 L 71.800 269.000 74.102 269.033 L 76.404 269.066 74.202 268.913 L 72.000 268.760 72.000 262.780 L 72.000 256.800 69.267 256.800 C 67.763 256.800,66.413 256.920,66.267 257.067 M258.888 262.667 C 258.824 267.077,258.664 268.788,258.300 268.935 C 257.908 269.093,257.911 269.144,258.313 269.168 C 259.142 269.220,259.229 268.466,259.100 262.382 L 258.976 256.600 258.888 262.667 M294.132 257.109 C 293.875 257.273,304.225 257.379,317.132 257.345 C 330.040 257.310,343.160 257.380,346.289 257.498 L 351.978 257.715 352.101 263.157 L 352.225 268.600 352.312 262.900 L 352.400 257.200 364.000 257.200 L 375.600 257.200 375.600 262.973 L 375.600 268.747 374.500 268.913 C 373.484 269.067,373.500 269.085,374.710 269.140 L 376.021 269.200 375.910 263.100 L 375.800 257.000 335.200 256.905 C 312.870 256.853,294.390 256.944,294.132 257.109 M282.151 271.200 C 282.151 273.730,282.216 274.765,282.296 273.500 C 282.375 272.235,282.375 270.165,282.296 268.900 C 282.216 267.635,282.151 268.670,282.151 271.200 M107.500 269.096 C 108.875 269.174,111.125 269.174,112.500 269.096 C 113.875 269.018,112.750 268.954,110.000 268.954 C 107.250 268.954,106.125 269.018,107.500 269.096 M118.560 274.600 C 118.561 277.900,118.622 279.197,118.698 277.482 C 118.773 275.767,118.772 273.067,118.697 271.482 C 118.621 269.897,118.559 271.300,118.560 274.600 M200.560 274.600 C 200.561 277.900,200.622 279.197,200.698 277.482 C 200.773 275.767,200.772 273.067,200.697 271.482 C 200.621 269.897,200.559 271.300,200.560 274.600 M225.300 269.091 C 226.125 269.178,227.475 269.178,228.300 269.091 C 229.125 269.005,228.450 268.934,226.800 268.934 C 225.150 268.934,224.475 269.005,225.300 269.091 M241.317 269.097 C 242.811 269.174,245.151 269.174,246.517 269.096 C 247.882 269.018,246.660 268.955,243.800 268.955 C 240.940 268.956,239.822 269.020,241.317 269.097 M356.917 269.097 C 358.411 269.174,360.751 269.174,362.117 269.096 C 363.482 269.018,362.260 268.955,359.400 268.955 C 356.540 268.956,355.422 269.020,356.917 269.097 M387.288 274.521 L 387.200 280.441 381.399 280.321 C 378.209 280.254,375.599 280.335,375.599 280.500 C 375.600 280.665,378.210 280.800,381.400 280.800 L 387.200 280.800 387.200 292.200 L 387.200 303.600 381.400 303.600 C 378.210 303.600,375.600 303.735,375.599 303.900 C 375.599 304.065,378.218 304.146,381.420 304.079 L 387.242 303.958 387.121 309.780 C 387.054 312.982,387.135 315.601,387.300 315.601 C 387.465 315.600,387.600 312.990,387.600 309.800 L 387.600 304.000 393.400 304.000 L 399.200 304.000 399.200 292.200 L 399.200 280.400 396.700 280.476 L 394.200 280.551 396.500 280.696 L 398.800 280.840 398.800 292.220 L 398.800 303.600 393.200 303.600 L 387.600 303.600 387.600 292.016 L 387.600 280.432 390.900 280.298 L 394.200 280.163 390.911 280.081 L 387.622 280.000 387.499 274.300 L 387.376 268.600 387.288 274.521 M61.911 280.293 C 62.851 280.378,64.291 280.377,65.111 280.291 C 65.930 280.205,65.160 280.136,63.400 280.137 C 61.640 280.139,60.970 280.209,61.911 280.293 M67.891 280.689 C 68.601 280.777,69.861 280.779,70.691 280.692 C 71.521 280.605,70.940 280.533,69.400 280.531 C 67.860 280.529,67.181 280.600,67.891 280.689 M252.900 286.294 L 258.800 286.421 258.800 289.411 L 258.800 292.400 264.900 292.312 L 271.000 292.223 265.117 292.101 L 259.235 291.979 259.117 289.089 L 259.000 286.200 253.000 286.183 L 247.000 286.166 252.900 286.294 M16.518 292.298 C 18.233 292.373,20.933 292.372,22.518 292.297 C 24.103 292.221,22.700 292.159,19.400 292.160 C 16.100 292.161,14.803 292.222,16.518 292.298 M278.300 292.289 C 279.015 292.378,280.185 292.378,280.900 292.289 C 281.615 292.201,281.030 292.128,279.600 292.128 C 278.170 292.128,277.585 292.201,278.300 292.289 M270.577 299.600 L 270.600 303.800 288.200 303.806 L 305.800 303.813 288.314 303.702 L 270.828 303.592 270.691 299.496 L 270.554 295.400 270.577 299.600 M16.700 303.897 C 18.295 303.973,20.905 303.973,22.500 303.897 C 24.095 303.821,22.790 303.759,19.600 303.759 C 16.410 303.759,15.105 303.821,16.700 303.897 M36.720 309.601 C 36.654 312.901,36.735 315.601,36.900 315.601 C 37.065 315.600,37.200 312.990,37.200 309.800 L 37.200 304.000 54.389 304.000 L 71.577 304.000 71.701 309.500 L 71.825 315.000 71.912 309.300 L 72.000 303.600 54.420 303.600 L 36.840 303.600 36.720 309.601 M95.200 303.894 C 95.200 304.062,100.420 304.150,106.800 304.088 L 118.400 303.976 118.400 315.388 L 118.400 326.800 112.811 326.800 L 107.222 326.800 107.111 321.100 L 107.000 315.400 101.100 315.383 L 95.199 315.367 101.000 315.494 L 106.800 315.621 106.800 321.211 L 106.800 326.800 92.411 326.800 L 78.022 326.800 77.899 321.100 L 77.776 315.400 77.688 321.257 C 77.613 326.282,77.690 327.149,78.233 327.357 C 78.581 327.491,85.151 327.600,92.833 327.600 L 106.800 327.600 106.800 344.800 L 106.800 362.000 101.000 362.000 L 95.200 362.000 95.200 373.800 L 95.200 385.600 100.300 385.514 L 105.400 385.427 100.500 385.301 L 95.600 385.175 95.600 373.799 L 95.600 362.422 101.300 362.311 L 107.000 362.200 107.104 344.700 L 107.208 327.200 113.010 327.200 L 118.812 327.200 118.706 315.500 L 118.600 303.800 106.900 303.694 C 100.465 303.636,95.200 303.726,95.200 303.894 M340.575 304.120 C 340.465 304.406,340.432 307.061,340.500 310.020 L 340.625 315.400 340.713 309.706 L 340.800 304.012 352.300 303.900 L 363.800 303.787 352.287 303.694 C 343.141 303.619,340.734 303.707,340.575 304.120 M364.000 315.200 L 352.200 315.400 352.089 321.100 L 351.978 326.800 322.689 326.866 L 293.400 326.932 334.399 327.247 C 356.949 327.420,375.539 327.421,375.710 327.250 C 375.881 327.079,375.972 324.252,375.911 320.969 L 375.800 315.000 364.000 315.200 M1.688 320.667 C 1.640 323.784,1.709 326.619,1.843 326.967 C 2.056 327.524,3.472 327.600,13.635 327.600 L 25.185 327.600 25.408 326.700 C 25.530 326.205,25.573 323.460,25.502 320.600 L 25.374 315.400 25.287 321.100 L 25.200 326.800 13.611 326.800 L 2.021 326.800 1.899 320.900 L 1.777 315.000 1.688 320.667 M258.897 344.500 L 258.800 374.000 264.700 373.912 L 270.600 373.824 264.903 373.701 L 259.205 373.578 259.100 344.289 L 258.995 315.000 258.897 344.500 M375.600 321.200 L 375.600 326.800 364.000 326.800 L 352.400 326.800 352.400 321.200 L 352.400 315.600 364.000 315.600 L 375.600 315.600 375.600 321.200 M282.101 325.400 C 282.105 326.280,282.187 326.593,282.283 326.095 C 282.379 325.598,282.375 324.878,282.275 324.495 C 282.175 324.113,282.096 324.520,282.101 325.400 M171.467 327.067 C 171.320 327.213,171.200 328.555,171.200 330.049 L 171.200 332.765 168.300 332.882 L 165.400 333.000 165.370 336.000 L 165.339 339.000 165.487 336.100 L 165.635 333.200 168.618 333.200 L 171.600 333.200 171.600 330.400 L 171.600 327.600 174.189 327.600 L 176.778 327.600 176.901 333.300 L 177.024 339.000 177.112 332.900 L 177.200 326.800 174.467 326.800 C 172.963 326.800,171.613 326.920,171.467 327.067 M153.688 344.500 L 153.600 350.400 147.800 350.400 L 142.000 350.400 142.000 356.200 L 142.000 362.000 136.200 362.000 L 130.400 362.000 130.486 366.700 L 130.571 371.400 130.699 366.911 L 130.826 362.422 136.513 362.311 L 142.200 362.200 142.311 356.500 L 142.422 350.800 148.024 350.800 C 154.648 350.800,154.061 351.461,153.900 344.181 L 153.775 338.600 153.688 344.500 M212.000 344.699 L 212.200 350.600 220.800 350.612 L 229.400 350.623 220.900 350.504 L 212.400 350.384 212.400 344.592 C 212.400 341.406,212.265 338.800,212.100 338.799 C 211.935 338.799,211.890 341.454,212.000 344.699 M229.599 362.100 C 229.600 362.265,230.856 362.400,232.392 362.400 L 235.184 362.400 235.292 371.100 L 235.400 379.800 241.400 379.822 L 247.400 379.845 241.600 379.622 L 235.800 379.400 235.692 370.731 L 235.585 362.063 232.591 361.931 C 230.945 361.859,229.599 361.935,229.599 362.100 M270.534 377.200 C 270.534 378.850,270.605 379.525,270.691 378.700 C 270.778 377.875,270.778 376.525,270.691 375.700 C 270.605 374.875,270.534 375.550,270.534 377.200 " stroke="none" fill="#919da2" fill-rule="evenodd"></path></g></svg>